# xmcd CD database file
#
# Track frame offsets:
#	150
#	24870
#	51663
#	64486
#	87528
#	107989
#	134177
#	162245
#	180517
#	199722
#	216200
#	233667
#	252715
#	269019
#	292892
#	309922
#
# Disc length: 4441 seconds
#
# Revision: 0
# Processed by: cddbd v1.5.1PL0 Copyright (c) Steve Scherf et al.
# Submitted via: CDex 1.51
#
DISCID=fa115710
DTITLE=JDS - The Adventures Of The Purple Funky Monkey
DYEAR=1900
DGENRE=Electronic
TTITLE0=Purple Funky Monkey
TTITLE1=Dirty Funk
TTITLE2=This Is Kalifornia
TTITLE3=Freaky
TTITLE4=Don't Be Alone
TTITLE5=Blackout
TTITLE6=Rockstar
TTITLE7=Good Old Days
TTITLE8=Breezin'
TTITLE9=We Got Conga
TTITLE10=Runaway
TTITLE11=Zeon
TTITLE12=Daylight
TTITLE13=Disco Rockers
TTITLE14=Detonate
TTITLE15=Jump Around
EXTD=
EXTT0=
EXTT1=
EXTT2=
EXTT3=
EXTT4=
EXTT5=
EXTT6=
EXTT7=
EXTT8=
EXTT9=
EXTT10=
EXTT11=
EXTT12=
EXTT13=
EXTT14=
EXTT15=
PLAYORDER=
